<svg id="Capa_1" data-name="Capa 1" xmlns="http://www.w3.org/2000/svg" viewBox="0 0 61.63 43"><defs><style>.cls-1{fill:#000f9f;}.cls-2{fill:#009ee2;}.cls-3{fill:#fff;}</style></defs><path class="cls-1" d="M61.63,20.33C61.63,9.28,47.89.26,31,.26S.26,9.28.26,20.33v1.18c0,11.73,12,21.23,30.68,21.23s30.69-9.5,30.69-21.23Z"/><path class="cls-2" d="M60.46,20.32C60.46,30.75,47.25,39.2,31,39.2S1.45,30.75,1.45,20.32,14.66,1.45,31,1.45,60.46,9.9,60.46,20.32Z"/><path class="cls-3" d="M21.16,14.37s-.31.33-.12.58c.46.59,1.9.93,3.35.61a9.93,9.93,0,0,0,3.06-1.93,11.87,11.87,0,0,1,3.48-2.22,3.91,3.91,0,0,1,2.54-.07,7.88,7.88,0,0,1,2.31,1.35c2,1.52,10.14,8.6,11.54,9.83a70.44,70.44,0,0,1,13-4.18c-.59-3.63-2.8-7-6.16-9.69-4.67,2-10.39,3-16,.26a15.44,15.44,0,0,0-6-1.37c-4.44.1-6.36,2-8.39,4.05Z"/><path class="cls-3" d="M47,23.29c-.09-.09-9.54-8.35-11.68-10a5.23,5.23,0,0,0-2.65-1.26,3.64,3.64,0,0,0-1.27.12,11.43,11.43,0,0,0-3.45,2.06,9.9,9.9,0,0,1-3.37,2.08,5.43,5.43,0,0,1-3.72-.56,1.69,1.69,0,0,1-.62-.67,1.17,1.17,0,0,1,.32-1.24L23.16,11l.92-.9a17.25,17.25,0,0,0-2.38.53,10.16,10.16,0,0,1-2.77.52,25.53,25.53,0,0,1-2.83-.44A43.2,43.2,0,0,1,8.57,8c-3.7,2.76-6.18,6.21-6.9,10,.53.14,1.39.4,1.75.48,8.39,1.86,11,3.78,11.48,4.19A2.75,2.75,0,0,1,17,21.77,2.79,2.79,0,0,1,19.25,23a3.16,3.16,0,0,1,2-.7,3.7,3.7,0,0,1,1.2.21A2.72,2.72,0,0,1,24.14,24a2.74,2.74,0,0,1,1.17-.24,3.56,3.56,0,0,1,1.39.3,3,3,0,0,1,1.65,3.33l.33,0a3.32,3.32,0,0,1,2.93,4.9A5.22,5.22,0,0,0,34.5,33a1.85,1.85,0,0,0,1.35-.58c.08-.12.17-.26.09-.36l-2.37-2.63s-.39-.37-.26-.51.38.06.55.21c1.2,1,2.67,2.52,2.67,2.52s.12.21.67.31a2.49,2.49,0,0,0,1.87-.44,3.26,3.26,0,0,0,.41-.42l0,0a1.26,1.26,0,0,0-.06-1.56l-2.77-3.1s-.39-.37-.26-.51.38.06.55.21c.87.73,2.11,2,3.3,3.13a2.26,2.26,0,0,0,2.65-.09,1.93,1.93,0,0,0,1-1.73,2,2,0,0,0-.59-1.16l-3.77-3.79s-.4-.34-.26-.52.38.07.55.21c1.2,1,4.45,4,4.45,4a2.3,2.3,0,0,0,2.56-.05,1.73,1.73,0,0,0,.85-1.35A2,2,0,0,0,47,23.29Z"/><path class="cls-3" d="M28.68,28.1a8.32,8.32,0,0,0-1.31.29s0-.27.09-.4.83-2.46-1.05-3.26a2.22,2.22,0,0,0-2.62.39c-.08.08-.11.08-.12,0a2.08,2.08,0,0,0-1.46-1.93A2.84,2.84,0,0,0,19,24.31a2.05,2.05,0,1,0-2,2.32,2,2,0,0,0,1.42-.58s0,0,0,.07a2.7,2.7,0,0,0,1.69,3.11,2,2,0,0,0,2-.3c.16-.12.19-.07.16.08a1.94,1.94,0,0,0,1.45,2.08,1.83,1.83,0,0,0,2.15-.4c.19-.17.24-.14.24.12a2.59,2.59,0,1,0,2.59-2.71Z"/><path class="cls-1" d="M47.36,22.3c-2.91-2.54-9.64-8.39-11.46-9.76a8.08,8.08,0,0,0-2.38-1.38A4,4,0,0,0,32.36,11a4.74,4.74,0,0,0-1.48.25,12.14,12.14,0,0,0-3.49,2.2l-.06.05a9.49,9.49,0,0,1-3,1.89,4.53,4.53,0,0,1-1.1.13,2.8,2.8,0,0,1-2.07-.67c-.06-.06,0-.17.1-.32v0l2.56-2.76c2-2,3.9-3.9,8.27-4h.21a15.54,15.54,0,0,1,5.73,1.36A17.94,17.94,0,0,0,45.89,11,20.46,20.46,0,0,0,54.46,8.9c-.33-.28-.68-.55-1-.82a18.87,18.87,0,0,1-7.54,1.71A16.54,16.54,0,0,1,38.58,8a16.41,16.41,0,0,0-6.24-1.47H32.1A10.88,10.88,0,0,0,25,9.09a13.89,13.89,0,0,0-3.54.64,9.59,9.59,0,0,1-2.51.48c-.32,0-.89,0-.95,0A48.9,48.9,0,0,1,9,7.69c-.37.26-.72.53-1.06.8a44.73,44.73,0,0,0,9.75,2.82c.4,0,.83.07,1.25.07a10.88,10.88,0,0,0,2.82-.52c.55-.16,1.15-.32,1.78-.44l-.51.5-2.6,2.81a1.31,1.31,0,0,0-.35,1.44,1.78,1.78,0,0,0,.68.76,5.39,5.39,0,0,0,2.76.7,4.82,4.82,0,0,0,1.1-.12,9.8,9.8,0,0,0,3.45-2.12,11.4,11.4,0,0,1,3.39-2,3.8,3.8,0,0,1,.94-.13h.24a5.13,5.13,0,0,1,2.57,1.23c2.13,1.6,11.58,9.87,11.68,10a1.83,1.83,0,0,1,.56,1.39,1.5,1.5,0,0,1-.75,1.2,2.29,2.29,0,0,1-1.24.39,2.06,2.06,0,0,1-1.1-.32s-3.27-3-4.46-4a1,1,0,0,0-.56-.3.3.3,0,0,0-.25.12c-.19.23,0,.55.27.76l3.78,3.8a1.78,1.78,0,0,1,.53,1,1.76,1.76,0,0,1-.9,1.57,2.4,2.4,0,0,1-1.34.44,2,2,0,0,1-1.08-.32l-.54-.54c-1-1-2-2-2.77-2.61a1,1,0,0,0-.56-.29.3.3,0,0,0-.24.1c-.09.1-.15.27.07.55a1.09,1.09,0,0,0,.19.21l2.76,3.1A1.07,1.07,0,0,1,39.31,31l-.1.12a3,3,0,0,1-.25.25,2.28,2.28,0,0,1-1.35.43,2.22,2.22,0,0,1-.38,0,.91.91,0,0,1-.54-.23l0,0C36.51,31.38,35.11,30,34,29a1,1,0,0,0-.53-.29.3.3,0,0,0-.25.12c-.23.25.11.62.26.76l2.35,2.59a.44.44,0,0,1-.09.16c-.08.12-.37.4-1.22.51l-.31,0a5.35,5.35,0,0,1-2.31-.69,3.46,3.46,0,0,0,.34-1.49,3.51,3.51,0,0,0-3.51-3.51h-.13a3.13,3.13,0,0,0-1.78-3.3,3.79,3.79,0,0,0-1.47-.32,3,3,0,0,0-1.08.19,3,3,0,0,0-1.72-1.46,4,4,0,0,0-1.26-.22,3.32,3.32,0,0,0-2,.63A3,3,0,0,0,17,21.59a3,3,0,0,0-2.1.86c-.73-.56-3.63-2.4-11.41-4.17-.38-.08-1.25-.33-1.78-.49-.08.42-.15.85-.19,1.28l1.71.41c8,1.76,10.58,3.6,11,3.94A3,3,0,0,0,17,27.55a3.29,3.29,0,0,0,.54-.05,3.47,3.47,0,0,0,2.25,2.59,2.86,2.86,0,0,0,1.06.21,2.59,2.59,0,0,0,.68-.09,3.45,3.45,0,0,0,3,2,2.57,2.57,0,0,0,.91-.16,3.5,3.5,0,0,0,5.76,1.11,6.53,6.53,0,0,0,3,.89,3.29,3.29,0,0,0,.45,0,2.75,2.75,0,0,0,2-1,2.25,2.25,0,0,0,.12-.21,3.1,3.1,0,0,0,1,.15,3.19,3.19,0,0,0,1.92-.68,2.69,2.69,0,0,0,1.14-1.65v0a2.79,2.79,0,0,0,.64.07,3.56,3.56,0,0,0,2-.63A2.82,2.82,0,0,0,44.8,27.5a3.68,3.68,0,0,0,.66.06A3.42,3.42,0,0,0,47.31,27a2.7,2.7,0,0,0,1.28-2.09,2.82,2.82,0,0,0-.41-1.69,76.54,76.54,0,0,1,12.26-3.83,10.93,10.93,0,0,0-.17-1.28A70.4,70.4,0,0,0,47.36,22.3ZM28.68,33.09a2.39,2.39,0,0,1-2.4-2.29c0-.11,0-.4-.26-.4a.46.46,0,0,0-.29.15,1.72,1.72,0,0,1-1.18.53,2,2,0,0,1-.78-.17c-1.37-.55-1.39-1.49-1.33-1.87a.33.33,0,0,0-.05-.29l-.08-.07h-.09a.48.48,0,0,0-.24.09,2,2,0,0,1-1.16.42,1.93,1.93,0,0,1-.65-.13,2.52,2.52,0,0,1-1.57-2.92.23.23,0,0,0-.08-.23l-.13-.11-.12.12a1.87,1.87,0,0,1-3.16-1.35,1.87,1.87,0,0,1,3.72-.24l.06.5.28-.42a2.75,2.75,0,0,1,2.18-1.2,2.91,2.91,0,0,1,.81.13,1.91,1.91,0,0,1,1.33,1.77c0,.24.19.25.22.25a.31.31,0,0,0,.22-.11,1.9,1.9,0,0,1,1.38-.58,2.5,2.5,0,0,1,1,.23c1.76.76,1,3,1,3-.16.37-.16.53,0,.63l.07,0h0a1.06,1.06,0,0,0,.34-.09,3.1,3.1,0,0,1,.94-.21h0a2.44,2.44,0,0,1,2.41,2.41A2.4,2.4,0,0,1,28.68,33.09Z"/></svg>