<svg id="Capa_1" data-name="Capa 1" xmlns="http://www.w3.org/2000/svg" viewBox="0 0 42.69 43"><defs><style>.cls-1{fill:#da167b;}.cls-1,.cls-2{fill-rule:evenodd;}.cls-2{fill:#fff;}</style></defs><g id="COMERCIOS"><g id="Header_desktop-Copy" data-name="Header/desktop-Copy"><g id="Varios_color_logo_TodoPago_color" data-name="Varios/color/logo_TodoPago_color"><g id="Varios_color_logo_TodoPago_iso_color" data-name="Varios/color/logo_TodoPago_iso_color"><path id="fondo" class="cls-1" d="M4.27,0H38.42a4.29,4.29,0,0,1,4.27,4.3V38.7A4.29,4.29,0,0,1,38.42,43H4.27A4.29,4.29,0,0,1,0,38.7V4.3A4.29,4.29,0,0,1,4.27,0Z"/><path id="TP" class="cls-2" d="M29.38,10.44h-22a2.16,2.16,0,0,0,0,4.32h5V30.22a2.33,2.33,0,1,0,4.65,0v-14l-1.13-1c-.27-.2-.24-.49.13-.49H29c2.32,0,3.77,1,3.77,3.14V18c0,1.82-1.36,3.21-3.68,3.21H24.92a3.12,3.12,0,0,0-3.39,3.06v6a2.33,2.33,0,1,0,4.65,0V26.81L25,25.74a.22.22,0,0,1,.15-.4h3.81c4.74,0,8.54-2.56,8.54-7.48V17.8c0-4.35-3-7.36-8.09-7.36"/></g></g></g></g></svg>