<?xml version="1.0" standalone="no"?>
<!DOCTYPE svg PUBLIC "-//W3C//DTD SVG 20010904//EN"
 "http://www.w3.org/TR/2001/REC-SVG-20010904/DTD/svg10.dtd">
<svg version="1.0" xmlns="http://www.w3.org/2000/svg"
 width="260.000000pt" height="260.000000pt" viewBox="0 0 260.000000 260.000000"
 preserveAspectRatio="xMidYMid meet">
<metadata>
Created by potrace 1.14, written by Peter Selinger 2001-2017
</metadata>
<g transform="translate(0.000000,260.000000) scale(0.100000,-0.100000)"
fill="#000000" stroke="none">
<path d="M1235 2572 c-22 -11 -613 -507 -645 -542 -3 -3 -50 -43 -105 -90 -55
-47 -119 -102 -141 -123 -23 -21 -48 -44 -56 -50 -29 -23 -69 -86 -80 -124
-14 -46 -18 -993 -5 -1067 17 -99 73 -172 165 -214 56 -25 56 -25 361 -26
l306 -1 0 -82 c1 -88 10 -108 53 -118 15 -3 36 -20 47 -38 68 -107 262 -107
330 0 11 18 32 35 47 38 43 10 52 30 52 116 0 44 5 80 11 82 5 2 142 4 302 4
256 1 299 3 343 19 86 31 161 120 177 211 3 21 7 261 7 533 1 596 7 562 -118
684 -100 97 -878 766 -914 785 -36 19 -101 20 -137 3z"/>
</g>
</svg>
