<?xml version="1.0" encoding="UTF-8"?><svg id="Capa_2" xmlns="http://www.w3.org/2000/svg" viewBox="0 0 168.31 93.15"><defs><style>.cls-1{fill:#4e4d4d;}</style></defs><g id="Capa_1-2"><path class="cls-1" d="M16.11,9.22v28.55h5.53v8.44H0v-8.44h5.6V9.22H0V.78h21.65v8.44h-5.53Z"/><path class="cls-1" d="M61.75,46.2l-8.76-12.65h-9.67v12.65h-10.51V.78h19.66c4.02,0,7.52.67,10.48,2.01,2.96,1.34,5.25,3.24,6.85,5.71s2.4,5.39,2.4,8.76-.81,6.28-2.43,8.73c-1.62,2.45-3.93,4.32-6.91,5.61l10.19,14.6h-11.29ZM59.09,11.39c-1.65-1.36-4.05-2.04-7.2-2.04h-8.57v15.83h8.57c3.16,0,5.56-.69,7.2-2.08,1.64-1.39,2.47-3.33,2.47-5.84s-.82-4.51-2.47-5.87Z"/><path class="cls-1" d="M97,9.22v28.55h5.53v8.44h-21.65v-8.44h5.6V9.22h-5.6V.78h21.65v8.44h-5.53Z"/><path class="cls-1" d="M118.21,45.52c-3.35-.97-6.05-2.24-8.08-3.8l3.57-7.92c1.95,1.43,4.26,2.57,6.94,3.44,2.68.87,5.36,1.3,8.05,1.3,2.99,0,5.19-.44,6.62-1.33,1.43-.89,2.14-2.07,2.14-3.54,0-1.08-.42-1.98-1.27-2.69s-1.93-1.29-3.24-1.72c-1.32-.43-3.11-.91-5.35-1.43-3.46-.82-6.29-1.64-8.5-2.47s-4.1-2.14-5.68-3.96c-1.58-1.82-2.37-4.24-2.37-7.27,0-2.64.71-5.03,2.14-7.17,1.43-2.14,3.58-3.84,6.46-5.09,2.88-1.25,6.39-1.88,10.55-1.88,2.9,0,5.73.35,8.5,1.04,2.77.69,5.19,1.69,7.27,2.98l-3.25,7.98c-4.2-2.38-8.39-3.57-12.59-3.57-2.94,0-5.12.48-6.52,1.43-1.41.95-2.11,2.21-2.11,3.76s.81,2.72,2.43,3.47c1.62.76,4.1,1.5,7.43,2.24,3.46.82,6.29,1.64,8.5,2.47,2.21.82,4.1,2.12,5.68,3.89,1.58,1.77,2.37,4.18,2.37,7.2,0,2.6-.73,4.96-2.18,7.11-1.45,2.14-3.62,3.84-6.52,5.09-2.9,1.25-6.43,1.88-10.58,1.88-3.59,0-7.06-.49-10.41-1.46Z"/><path class="cls-1" d="M34.88,85.82h-2.57l5.78-25h15.88l-.53,2.43h-13.35l-2,8.66h12.57l-.56,2.43h-12.57l-2.65,11.48Z"/><path class="cls-1" d="M73.97,67.9l-4.17,17.92h-2.31l.6-2.57c-1.64,2-3.84,3-6.59,3-2.25,0-4.04-.73-5.37-2.2-1.33-1.47-1.99-3.37-1.99-5.72,0-2.96.93-5.5,2.79-7.64,1.86-2.14,4.27-3.2,7.23-3.2,1.63,0,3.04.39,4.23,1.16s1.98,1.8,2.38,3.07l.89-3.81h2.31ZM64.04,69.73c-2.18,0-3.96.84-5.33,2.52s-2.06,3.7-2.06,6.07c0,1.71.47,3.09,1.41,4.14.94,1.04,2.28,1.57,4.01,1.57,2.23,0,4.04-.86,5.42-2.57,1.38-1.71,2.08-3.78,2.08-6.2,0-1.69-.48-3.03-1.44-4.03s-2.32-1.5-4.08-1.5Z"/><path class="cls-1" d="M78.52,78c0-2.89.92-5.36,2.75-7.43s4.25-3.1,7.25-3.1c2.28,0,4.08.66,5.4,1.97,1.33,1.32,2.07,2.92,2.24,4.82h-2.54c-.19-1.41-.74-2.52-1.66-3.33-.91-.81-2.14-1.22-3.66-1.22-2,0-3.7.76-5.12,2.29-1.42,1.53-2.13,3.53-2.13,6.02,0,1.78.48,3.22,1.44,4.31.96,1.09,2.3,1.64,4.01,1.64,1.5,0,2.83-.42,3.98-1.25,1.15-.83,1.97-1.93,2.47-3.29h2.61c-.63,1.95-1.75,3.57-3.35,4.86-1.6,1.29-3.58,1.94-5.95,1.94s-4.31-.79-5.69-2.38c-1.37-1.58-2.06-3.54-2.06-5.86Z"/><path class="cls-1" d="M106.52,70.01l-3.68,15.81h-2.46l3.68-15.81h-3.43l.5-2.11h3.43l1.19-5.11h2.46l-1.19,5.11h3.69l-.5,2.11h-3.69Z"/><path class="cls-1" d="M112.25,78.14c0-2.98.95-5.5,2.85-7.57,1.9-2.07,4.37-3.1,7.39-3.1,2.46,0,4.43.77,5.9,2.31,1.47,1.54,2.2,3.47,2.2,5.79,0,2.98-.95,5.51-2.85,7.57-1.9,2.07-4.37,3.1-7.39,3.1-2.46,0-4.43-.77-5.9-2.31-1.47-1.54-2.2-3.47-2.2-5.79ZM114.75,77.97c0,1.78.5,3.23,1.51,4.35,1.01,1.12,2.44,1.67,4.3,1.67,2.21,0,4.01-.8,5.42-2.39,1.41-1.6,2.11-3.54,2.11-5.85,0-1.78-.51-3.23-1.51-4.35-1.01-1.11-2.44-1.67-4.3-1.67-2.21,0-4.01.8-5.42,2.39-1.41,1.6-2.11,3.54-2.11,5.85Z"/><path class="cls-1" d="M147.81,67.75l-.53,2.36c-.28-.02-.58-.04-.88-.04-1.6,0-3,.49-4.21,1.46-1.21.98-2.05,2.42-2.54,4.32l-2.24,9.96h-2.46l4.02-17.92h2.46l-.61,2.71c.59-.75,1.43-1.42,2.52-2.01,1.09-.59,2.39-.88,3.89-.88l.56.04Z"/><path class="cls-1" d="M149.08,93.15l4.94-7.58-3.28-17.68h2.54l2.58,14.85,9.67-14.85h2.78l-16.48,25.25h-2.75Z"/></g></svg>