<?xml version="1.0" encoding="UTF-8"?><svg id="Capa_2" xmlns="http://www.w3.org/2000/svg" viewBox="0 0 267.4 103.65"><defs><style>.cls-1{fill:#fff;}.cls-2{fill:#d7c094;}</style></defs><g id="Capa_1-2"><path class="cls-2" d="M217.7,85.13h19.69v3.17c0,1.52-1.23,2.75-2.75,2.75h-14.18c-1.52,0-2.75-1.23-2.75-2.75v-3.17h0Z"/><path class="cls-1" d="M18.86,10.15v31.46h6.1v9.3H1.1v-9.3h6.17V10.15H1.1V.86h23.85v9.3h-6.1Z"/><path class="cls-1" d="M69.15,50.91l-9.65-13.94h-10.65v13.94h-11.58V.86h21.67c4.43,0,8.28.74,11.55,2.22,3.26,1.48,5.78,3.58,7.54,6.29s2.65,5.94,2.65,9.65-.89,6.92-2.68,9.62c-1.79,2.69-4.33,4.76-7.62,6.19l11.23,16.09h-12.44ZM66.22,12.55c-1.81-1.5-4.46-2.25-7.94-2.25h-9.44v17.45h9.44c3.48,0,6.13-.76,7.94-2.29,1.81-1.53,2.72-3.67,2.72-6.44s-.91-4.97-2.72-6.47Z"/><path class="cls-1" d="M108,10.15v31.46h6.1v9.3h-23.85v-9.3h6.17V10.15h-6.17V.86h23.85v9.3h-6.1Z"/><path class="cls-1" d="M131.37,50.16c-3.69-1.07-6.66-2.47-8.9-4.18l3.93-8.72c2.15,1.57,4.7,2.84,7.65,3.79,2.96.95,5.91,1.43,8.87,1.43,3.29,0,5.72-.49,7.29-1.47,1.57-.98,2.36-2.28,2.36-3.9,0-1.19-.47-2.18-1.39-2.97s-2.12-1.42-3.58-1.9c-1.46-.48-3.42-1-5.9-1.57-3.81-.91-6.94-1.81-9.37-2.72s-4.52-2.36-6.26-4.36c-1.74-2-2.61-4.67-2.61-8.01,0-2.91.79-5.54,2.36-7.9,1.57-2.36,3.94-4.23,7.11-5.61,3.17-1.38,7.04-2.07,11.62-2.07,3.19,0,6.32.38,9.37,1.14,3.05.76,5.72,1.86,8.01,3.29l-3.58,8.8c-4.62-2.62-9.25-3.93-13.87-3.93-3.24,0-5.64.52-7.19,1.57-1.55,1.05-2.32,2.43-2.32,4.15s.89,2.99,2.68,3.83c1.79.84,4.52,1.66,8.19,2.47,3.81.91,6.94,1.81,9.37,2.72,2.43.91,4.52,2.34,6.26,4.29,1.74,1.96,2.61,4.6,2.61,7.94,0,2.86-.8,5.47-2.4,7.83-1.6,2.36-3.99,4.23-7.19,5.61-3.19,1.38-7.08,2.07-11.66,2.07-3.96,0-7.78-.54-11.48-1.61Z"/><path class="cls-2" d="M260.77,30.22c-9.67-8.29-19.35-16.58-29.02-24.87-1.69-1.61-3.72-1.66-4.15-1.66-2.34,0-3.84,1.37-4.15,1.66l-29.02,24.87c-2.49,2.49-6.63,4.53-6.63,10.08v34.57c0,2.77,1.13,5.29,2.96,7.12,2.88,2.88,6.44,2.96,7.12,2.96h19.82c0-9.75-9.9-22.78-9.9-32.69,0-10.94,8.87-19.81,19.81-19.81s19.8,8.87,19.8,19.81c0,9.9-9.9,22.63-9.9,32.69h19.82c5.54,0,10.08-4.53,10.08-10.08v-33.74c0-5.54-1.66-5.93-6.63-10.9Z"/><path class="cls-1" d="M3.01,95.04H0l6.78-29.34h18.64l-.62,2.85h-15.66l-2.35,10.17h14.75l-.66,2.85H6.13l-3.12,13.47Z"/><path class="cls-1" d="M48.89,74.01l-4.89,21.03h-2.71l.7-3.02c-1.93,2.35-4.5,3.52-7.73,3.52-2.64,0-4.74-.86-6.3-2.58-1.56-1.72-2.33-3.96-2.33-6.72,0-3.47,1.09-6.46,3.27-8.97,2.18-2.51,5.01-3.76,8.48-3.76,1.92,0,3.57.46,4.96,1.37s2.32,2.11,2.79,3.6l1.04-4.47h2.71ZM37.23,76.16c-2.56,0-4.65.99-6.26,2.95s-2.42,4.35-2.42,7.13c0,2.01.55,3.63,1.65,4.86,1.1,1.23,2.67,1.84,4.71,1.84,2.62,0,4.74-1.01,6.36-3.02,1.62-2.01,2.44-4.44,2.44-7.27,0-1.98-.56-3.56-1.69-4.73s-2.73-1.76-4.79-1.76Z"/><path class="cls-1" d="M54.22,85.87c0-3.39,1.07-6.3,3.22-8.72s4.99-3.64,8.51-3.64c2.67,0,4.79.77,6.34,2.31,1.56,1.54,2.43,3.43,2.62,5.66h-2.98c-.22-1.65-.87-2.95-1.94-3.91-1.07-.95-2.51-1.43-4.3-1.43-2.34,0-4.35.9-6.01,2.69-1.67,1.79-2.5,4.15-2.5,7.07,0,2.09.56,3.78,1.69,5.06,1.13,1.28,2.7,1.92,4.71,1.92,1.76,0,3.32-.49,4.67-1.47,1.35-.98,2.31-2.27,2.89-3.86h3.06c-.74,2.29-2.05,4.19-3.93,5.7-1.87,1.52-4.2,2.27-6.98,2.27s-5.06-.93-6.67-2.79c-1.61-1.86-2.42-4.15-2.42-6.88Z"/><path class="cls-1" d="M87.08,76.49l-4.32,18.55h-2.88l4.32-18.55h-4.03l.58-2.48h4.02l1.4-5.99h2.88l-1.39,5.99h4.33l-.58,2.48h-4.32Z"/><path class="cls-1" d="M93.81,86.03c0-3.5,1.11-6.46,3.35-8.88,2.23-2.42,5.12-3.64,8.68-3.64,2.89,0,5.2.9,6.92,2.71,1.72,1.81,2.58,4.07,2.58,6.8,0,3.5-1.11,6.46-3.35,8.88-2.23,2.42-5.12,3.64-8.68,3.64-2.89,0-5.2-.9-6.92-2.71-1.72-1.8-2.58-4.07-2.58-6.8ZM96.74,85.83c0,2.09.59,3.8,1.78,5.1,1.18,1.31,2.87,1.96,5.04,1.96,2.59,0,4.71-.94,6.36-2.81,1.65-1.87,2.48-4.16,2.48-6.86,0-2.09-.59-3.79-1.78-5.1-1.18-1.31-2.87-1.96-5.04-1.96-2.59,0-4.71.94-6.36,2.81-1.65,1.87-2.48,4.16-2.48,6.86Z"/><path class="cls-1" d="M135.53,73.84l-.62,2.77c-.33-.03-.68-.04-1.03-.04-1.87,0-3.52.57-4.94,1.72-1.42,1.14-2.41,2.83-2.98,5.07l-2.62,11.69h-2.88l4.72-21.03h2.88l-.71,3.18c.69-.88,1.67-1.67,2.96-2.36,1.28-.69,2.8-1.03,4.57-1.03l.66.04Z"/><path class="cls-1" d="M137.03,103.65l5.79-8.9-3.85-20.74h2.98l3.03,17.43,11.35-17.43h3.26l-19.34,29.63h-3.22Z"/></g></svg>